# xmcd
#
# Track frame offsets:
# 150
# 21546
# 45224
# 66989
# 90713
# 108969
# 130010
# 145304
# 160889
# 179377
# 204346
# 228104
#
# Disc length: 3348 seconds
#
#
# Revision: 0
# Processed by: cddbd v1.5.2PL0 Copyright (c) Steve Scherf et al.
# Submitted via: FreeRIP 2.945 
#
DISCID=9b0d120c
DTITLE=Poppa Chubby - Hit the High hard One
DYEAR=1997
DGENRE=Blues
TTITLE0=Nobody knows you when you're down and out
TTITLE1=Whats your point
TTITLE2=Dance the night away
TTITLE3=Real thing
TTITLE4=Laya what ya tryin to do
TTITLE5=Long way home
TTITLE6=Protected
TTITLE7=It all turns to gold
TTITLE8=What's your problem
TTITLE9=Naughty little people
TTITLE10=Nobody loves me like I love myself
TTITLE11=Ohh Roger
EXTD=
EXTT0=
EXTT1=
EXTT2=
EXTT3=
EXTT4=
EXTT5=
EXTT6=
EXTT7=
EXTT8=
EXTT9=
EXTT10=
EXTT11=
PLAYORDER=
